<?xml version="1.0" encoding="UTF-8" standalone="no"?> <svg xmlns="http://www.w3.org/2000/svg" data-name="Layer 1" viewBox="0 0 32 32"><rect width="3" height="3" x="4.5" y="9.5" fill="#fdc475"/><rect width="2" height="11" x="27.5" y="20.5" fill="#b28966"/><rect width="1" height="11" x="27.5" y="20.5" fill="#8b6847"/><rect width="2" height="11" x="15.5" y="20.5" fill="#b28966"/><rect width="1" height="11" x="15.5" y="20.5" fill="#8b6847"/><path fill="#b28966" d="M14.5,20.5h16a1,1,0,0,0,1-1v-2h-18v2A1,1,0,0,0,14.5,20.5Z"/><path fill="#8b6847" d="M14.5,19.5v-2h-1v2a1,1,0,0,0,1,1h1A1,1,0,0,1,14.5,19.5Z"/><rect width="2" height="1" x="15.5" y="20.5" fill="#8b6847"/><rect width="2" height="1" x="27.5" y="20.5" fill="#8b6847"/><path fill="#e0e0e2" d="M25.37735,9.35858,24.5,15.5h-6a1,1,0,0,0-1,1v1h8.105a1,1,0,0,0,.99388-.88957L27.5,8.5H26.3673A1,1,0,0,0,25.37735,9.35858Z"/><path fill="#afaeb3" d="M26.37732 9.35858a1 1 0 0 1 .99-.85858h-1a1 1 0 0 0-.99.85858L24.5 15.5h1zM19.5 15.5h-1a1 1 0 0 0-1 1v1h1v-1A1 1 0 0 1 19.5 15.5z"/><path fill="#4ebaea" d="M15.5,16A1.498,1.498,0,0,1,14,17.5H10.83a1.02861,1.02861,0,0,1-.6-.2l-.73-.55V20.9l-7-1.4v-6a2.01455,2.01455,0,0,1,2-2H6.8a1.9857,1.9857,0,0,1,1.25.44l2.93,2.34a.97755.97755,0,0,0,.62.22H14A1.498,1.498,0,0,1,15.5,16Z"/><path fill="#2e99d4" d="M3.5,19.7V13.5a2.01455,2.01455,0,0,1,2-2h-1a2.01455,2.01455,0,0,0-2,2v6Z"/><path fill="#fdc475" d="M15.5,16A1.498,1.498,0,0,1,14,17.5h-.5v-3H14A1.498,1.498,0,0,1,15.5,16Z"/><path fill="#58565d" d="M13.43,30.44l-.93-.94h-3v1.77a.22631.22631,0,0,0,.23.23h3.54a.22631.22631,0,0,0,.23-.23V30.6A.19893.19893,0,0,0,13.43,30.44Z"/><path fill="#3c3b41" d="M10.5,31.27V29.5h-1v1.77a.22631.22631,0,0,0,.23.23h1A.22631.22631,0,0,1,10.5,31.27Z"/><path fill="#8b6847" d="M.5,32a.49971.49971,0,0,1-.5-.5v-15a.5.5,0,0,1,1,0v15A.49971.49971,0,0,1,.5,32Z"/><path fill="#8b6847" d="M7.5,32a.48485.48485,0,0,1-.5-.46875V25.4375H.5A.46973.46973,0,1,1,.5,24.5h7a.48485.48485,0,0,1,.5.46875v6.5625A.48485.48485,0,0,1,7.5,32Z"/><path fill="#faa827" d="M7.5,9.5v1.23a1.99486,1.99486,0,0,1-1,.27h-1a1.99486,1.99486,0,0,1-1-.27V9.5Z"/><path fill="#fdc475" d="M8.5,5.5v3a2,2,0,0,1-2,2h-1a2,2,0,0,1-2-2v-3"/><path fill="#faa827" d="M4.5,8.5v-3h-1v3a2,2,0,0,0,2,2h1A2,2,0,0,1,4.5,8.5Z"/><path fill="#58565d" d="M3.5,7.5h1a1,1,0,0,0,1-1h0a1,1,0,0,1,1-1h2v-3l-.84183.89232a1,1,0,0,1-.78788.31194l-2.30979-.14A1,1,0,0,0,3.5,4.56244V7.5Z"/><path fill="#3c3b41" d="M4.5,4.56244a.98637.98637,0,0,1,.76941-.9552l-.70892-.043A1,1,0,0,0,3.5,4.56244V7.5h1V4.56244Z"/><path fill="#3f6db4" d="M9.5,29.49994V24.5h-5a2.00588,2.00588,0,0,1-2-2v-3l9.2,1.84a.99776.99776,0,0,1,.8.98V29.5Z"/><path fill="#1f53a4" d="M3.5,22.5V19.7l-1-.2v3a2.00591,2.00591,0,0,0,2,2h1A2.00591,2.00591,0,0,1,3.5,22.5Z"/><polygon fill="#1f53a4" points="10.5 29.5 10.5 24.5 9.5 24.5 9.5 29.5 12.5 29.5 12.5 29.5 10.5 29.5"/></svg>